<svg width="49" height="49" viewBox="0 0 49 49" fill="none" xmlns="http://www.w3.org/2000/svg">
<path fill-rule="evenodd" clip-rule="evenodd" d="M24.4496 0.649902C17.972 0.649902 17.161 0.676932 14.617 0.793002C12.0778 0.909072 10.3431 1.31293 8.82627 1.90282C7.23627 2.50066 5.79414 3.43876 4.60164 4.65352C3.38882 5.84465 2.45014 7.28576 1.85094 8.87656C1.26423 10.3934 0.858779 12.1297 0.742709 14.6689C0.628229 17.2113 0.599609 18.0207 0.599609 24.4999C0.599609 30.9792 0.626639 31.7885 0.742709 34.3325C0.858779 36.8717 1.26264 38.6064 1.85253 40.1232C2.45037 41.7132 3.38847 43.1554 4.60323 44.3479C5.79438 45.5606 7.23549 46.4993 8.82627 47.0986C10.3431 47.6869 12.0778 48.0907 14.617 48.2068C17.161 48.3229 17.972 48.3499 24.4496 48.3499C30.9273 48.3499 31.7382 48.3229 34.2822 48.2068C36.8214 48.0907 38.5561 47.6869 40.073 47.097C41.663 46.4991 43.1051 45.561 44.2976 44.3463C45.5104 43.1552 46.4491 41.714 47.0483 40.1232C47.6366 38.6064 48.0404 36.8717 48.1565 34.3325C48.2726 31.7885 48.2996 30.9776 48.2996 24.4999C48.2996 18.0222 48.2726 17.2113 48.1565 14.6673C48.0404 12.1281 47.6366 10.3934 47.0467 8.87656C46.4479 7.28507 45.5092 5.84335 44.296 4.65193C43.1049 3.43911 41.6638 2.50044 40.073 1.90123C38.5561 1.31452 36.8198 0.909072 34.2806 0.793002C31.7382 0.678522 30.9289 0.649902 24.4496 0.649902ZM24.4496 4.94767C30.8176 4.94767 31.5728 4.97152 34.0882 5.086C36.4128 5.19253 37.6752 5.5789 38.5163 5.90803C39.6293 6.33892 40.4243 6.85726 41.2591 7.69042C42.0938 8.52517 42.6106 9.32017 43.0415 10.4332C43.369 11.2743 43.757 12.5367 43.8635 14.8613C43.978 17.3767 44.0018 18.132 44.0018 24.4999C44.0018 30.8679 43.978 31.6231 43.8635 34.1385C43.757 36.4631 43.3706 37.7255 43.0415 38.5666C42.6598 39.6026 42.0507 40.5398 41.2591 41.3094C40.4897 42.1012 39.5524 42.7103 38.5163 43.0918C37.6752 43.4193 36.4128 43.8073 34.0882 43.9138C31.5728 44.0283 30.8192 44.0521 24.4496 44.0521C18.0801 44.0521 17.3264 44.0283 14.811 43.9138C12.4864 43.8073 11.224 43.4209 10.3829 43.0918C9.34692 42.7101 8.4097 42.101 7.64013 41.3094C6.84859 40.5397 6.23954 39.6025 5.85774 38.5666C5.5302 37.7255 5.14224 36.4631 5.03571 34.1385C4.92123 31.6231 4.89738 30.8679 4.89738 24.4999C4.89738 18.132 4.92123 17.3767 5.03571 14.8613C5.14224 12.5367 5.52861 11.2743 5.85774 10.4332C6.28863 9.32017 6.80697 8.52517 7.64013 7.69042C8.4096 6.89867 9.34685 6.28959 10.3829 5.90803C11.224 5.58049 12.4864 5.19253 14.811 5.086C17.3264 4.97152 18.0817 4.94767 24.4496 4.94767Z" fill="#152E7A"/>
<path fill-rule="evenodd" clip-rule="evenodd" d="M24.4493 32.4578C23.4043 32.4578 22.3695 32.252 21.404 31.8521C20.4384 31.4521 19.5612 30.866 18.8222 30.127C18.0832 29.388 17.4971 28.5108 17.0971 27.5453C16.6972 26.5798 16.4914 25.5449 16.4914 24.4999C16.4914 23.4548 16.6972 22.42 17.0971 21.4545C17.4971 20.489 18.0832 19.6117 18.8222 18.8728C19.5612 18.1338 20.4384 17.5476 21.404 17.1477C22.3695 16.7478 23.4043 16.5419 24.4493 16.5419C26.5599 16.5419 28.584 17.3804 30.0764 18.8728C31.5688 20.3652 32.4073 22.3893 32.4073 24.4999C32.4073 26.6105 31.5688 28.6346 30.0764 30.127C28.584 31.6194 26.5599 32.4578 24.4493 32.4578ZM24.4493 12.241C21.1981 12.241 18.08 13.5325 15.781 15.8315C13.482 18.1305 12.1904 21.2486 12.1904 24.4999C12.1904 27.7511 13.482 30.8692 15.781 33.1682C18.08 35.4672 21.1981 36.7588 24.4493 36.7588C27.7006 36.7588 30.8187 35.4672 33.1177 33.1682C35.4167 30.8692 36.7082 27.7511 36.7082 24.4999C36.7082 21.2486 35.4167 18.1305 33.1177 15.8315C30.8187 13.5325 27.7006 12.241 24.4493 12.241ZM40.2746 12.0184C40.2746 12.7869 39.9693 13.524 39.4259 14.0674C38.8824 14.6109 38.1454 14.9162 37.3768 14.9162C36.6083 14.9162 35.8712 14.6109 35.3278 14.0674C34.7843 13.524 34.479 12.7869 34.479 12.0184C34.479 11.2498 34.7843 10.5128 35.3278 9.96934C35.8712 9.42591 36.6083 9.12061 37.3768 9.12061C38.1454 9.12061 38.8824 9.42591 39.4259 9.96934C39.9693 10.5128 40.2746 11.2498 40.2746 12.0184Z" fill="#152E7A"/>
</svg>
