<svg width="48" height="49" viewBox="0 0 48 49" fill="none" xmlns="http://www.w3.org/2000/svg">
<path d="M47.9998 4.15726V44.8426C47.9998 45.7728 47.6303 46.6649 46.9725 47.3226C46.3148 47.9804 45.4227 48.3499 44.4925 48.3499H3.80716C2.87695 48.3499 1.98484 47.9804 1.32708 47.3226C0.669328 46.6649 0.299805 45.7728 0.299805 44.8426L0.299805 4.15726C0.299805 3.22705 0.669328 2.33494 1.32708 1.67718C1.98484 1.01943 2.87695 0.649902 3.80716 0.649902L44.4925 0.649902C45.4227 0.649902 46.3148 1.01943 46.9725 1.67718C47.6303 2.33494 47.9998 3.22705 47.9998 4.15726ZM14.3292 18.8881H7.31451V41.3352H14.3292V18.8881ZM14.9605 11.172C14.9642 10.6414 14.8634 10.1152 14.6637 9.62359C14.4641 9.13196 14.1696 8.68447 13.797 8.30667C13.4244 7.92887 12.981 7.62816 12.4922 7.42171C12.0034 7.21525 11.4787 7.1071 10.9481 7.10343H10.8219C9.74282 7.10343 8.70798 7.53208 7.94498 8.29508C7.18198 9.05807 6.75333 10.0929 6.75333 11.172C6.75333 12.251 7.18198 13.2858 7.94498 14.0488C8.70798 14.8118 9.74282 15.2405 10.8219 15.2405C11.3525 15.2535 11.8805 15.1619 12.3757 14.9708C12.871 14.7798 13.3237 14.493 13.708 14.1269C14.0924 13.7608 14.4008 13.3225 14.6157 12.8372C14.8306 12.3518 14.9478 11.8289 14.9605 11.2982V11.172ZM40.9851 27.6986C40.9851 20.9505 36.6921 18.327 32.4272 18.327C31.0307 18.257 29.6404 18.5545 28.3948 19.1896C27.1492 19.8247 26.0918 20.7753 25.3283 21.9466H25.1319V18.8881H18.538V41.3352H25.5527V29.3962C25.4513 28.1734 25.8365 26.96 26.6246 26.0196C27.4126 25.0792 28.5399 24.4877 29.7616 24.3736H30.0281C32.2588 24.3736 33.9143 25.7766 33.9143 29.312V41.3352H40.929L40.9851 27.6986Z" fill="#152E7A"/>
</svg>
