<svg width="47" height="53" viewBox="0 0 47 53" fill="none" xmlns="http://www.w3.org/2000/svg">
<path d="M39.6966 10.6237C36.8416 8.76225 34.7811 5.78394 34.1383 2.31203C33.9995 1.5619 33.9232 0.78989 33.9232 0H24.8114L24.7968 36.5169C24.6436 40.6061 21.278 43.8882 17.152 43.8882C15.8697 43.8882 14.6622 43.5676 13.599 43.0082C11.1611 41.7252 9.49265 39.1697 9.49265 36.229C9.49265 32.0054 12.9288 28.5692 17.152 28.5692C17.9404 28.5692 18.6966 28.6993 19.412 28.9234V19.6212C18.6717 19.5204 17.9195 19.4574 17.152 19.4574C7.9042 19.4574 0.380859 26.9811 0.380859 36.229C0.380859 41.9029 3.21571 46.9241 7.54058 49.9604C10.2647 51.8729 13.5783 53 17.152 53C26.3998 53 33.9232 45.4767 33.9232 36.229V17.7117C37.4969 20.2768 41.8754 21.7883 46.6 21.7883V12.6765C44.0549 12.6765 41.6846 11.9199 39.6966 10.6237Z" fill="#152E7A"/>
</svg>
