<svg width="39" height="39" viewBox="0 0 39 39" fill="none" xmlns="http://www.w3.org/2000/svg">
<g clip-path="url(#clip0_72_2356)">
<path d="M35.75 6.72994H27.625V3.56327C27.625 2.72342 27.2826 1.91797 26.6731 1.3241C26.0636 0.730237 25.237 0.396606 24.375 0.396606L14.625 0.396606C13.763 0.396606 12.9364 0.730237 12.3269 1.3241C11.7174 1.91797 11.375 2.72342 11.375 3.56327V6.72994H3.25V9.89661H6.5V33.6466C6.5 34.9064 7.01361 36.1146 7.92785 37.0054C8.84209 37.8962 10.0821 38.3966 11.375 38.3966H27.625C28.9179 38.3966 30.1579 37.8962 31.0721 37.0054C31.9864 36.1146 32.5 34.9064 32.5 33.6466V9.89661H35.75V6.72994ZM14.625 3.56327H24.375V6.72994H14.625V3.56327ZM29.25 33.6466C29.25 34.0665 29.0788 34.4693 28.774 34.7662C28.4693 35.0631 28.056 35.2299 27.625 35.2299H11.375C10.944 35.2299 10.5307 35.0631 10.226 34.7662C9.92121 34.4693 9.75 34.0665 9.75 33.6466V9.89661H29.25V33.6466Z" fill="white"/>
<path d="M17.875 16.229H14.625V28.8956H17.875V16.229Z" fill="white"/>
<path d="M24.375 16.229H21.125V28.8956H24.375V16.229Z" fill="white"/>
</g>
<defs>
<clipPath id="clip0_72_2356">
<rect width="39" height="38" fill="white" transform="translate(0 0.396606)"/>
</clipPath>
</defs>
</svg>
